<?xml version="1.0" encoding="utf-8"?>
<!-- Generator: Adobe Illustrator 24.0.1, SVG Export Plug-In . SVG Version: 6.00 Build 0)  -->
<svg version="1.1" id="Layer_1" xmlns="http://www.w3.org/2000/svg" xmlns:xlink="http://www.w3.org/1999/xlink" x="0px" y="0px"
	 viewBox="0 0 64 64" style="enable-background:new 0 0 64 64;" xml:space="preserve">
<g>
	<path d="M54,10.6L39,0.3C38.7,0.1,38.4,0,38.1,0H10.8C10,0,9.3,0.7,9.3,1.5v61c0,0.8,0.7,1.5,1.5,1.5h42.4c0.8,0,1.5-0.7,1.5-1.5
		V11.8C54.7,11.3,54.4,10.8,54,10.6z M51.7,61H12.3V3h25.3l14,9.6V61z"/>
	<path d="M28.1,28.7c-0.3-0.5-0.8-0.8-1.3-0.8s-1,0.3-1.3,0.8l-8.3,14.5c-0.4,0.7-0.2,1.6,0.6,2c0.7,0.4,1.6,0.2,2-0.6l1.9-3.4h10.1
		l1.9,3.4c0.3,0.5,0.8,0.8,1.3,0.8c0.3,0,0.5-0.1,0.7-0.2c0.7-0.4,1-1.3,0.6-2L28.1,28.7z M23.5,38.3l3.3-5.8l3.3,5.8H23.5z"/>
	<path d="M42.9,33.1c-0.8,0-1.5,0.7-1.5,1.5v9.3c0,0.8,0.7,1.5,1.5,1.5s1.5-0.7,1.5-1.5v-9.3C44.4,33.8,43.7,33.1,42.9,33.1z"/>
	<path d="M42.9,31c0.9,0,1.6-0.7,1.6-1.6s-0.7-1.6-1.6-1.6s-1.6,0.7-1.6,1.6S42,31,42.9,31z"/>
</g>
</svg>
